<svg width="27" height="27" viewBox="0 0 27 27" fill="none" xmlns="http://www.w3.org/2000/svg">
<path d="M19.3372 16.0568C19.0087 15.8939 17.3723 15.1201 17.068 15.0153C16.7636 14.9048 16.5406 14.8524 16.3206 15.1782C16.0976 15.5012 15.4647 16.2198 15.2658 16.438C15.073 16.6532 14.8771 16.6794 14.5486 16.5194C12.5958 15.5768 11.315 14.8379 10.0282 12.7053C9.68765 12.138 10.3687 12.1788 11.0046 10.954C11.1131 10.7387 11.0588 10.5554 10.9745 10.3925C10.8901 10.2295 10.2271 8.65272 9.94983 8.00976C9.68162 7.38427 9.40437 7.47155 9.20246 7.45991C9.00959 7.44827 8.78959 7.44827 8.56659 7.44827C8.34358 7.44827 7.98496 7.52973 7.68059 7.84685C7.37621 8.16978 6.51733 8.94655 6.51733 10.5234C6.51733 12.1002 7.70771 13.6276 7.87044 13.8429C8.0392 14.0582 10.212 17.2933 13.5481 18.6868C15.6576 19.5654 16.4833 19.6411 17.5381 19.4898C18.18 19.3967 19.503 18.7159 19.7772 17.9624C20.0514 17.2118 20.0514 16.5689 19.9701 16.4351C19.8887 16.2925 19.6657 16.211 19.3372 16.0568Z" fill="#40BCD7"/>
<path d="M25.9512 8.26875C25.2702 6.65056 24.2938 5.1981 23.0493 3.95056C21.8048 2.70603 20.3524 1.72667 18.7312 1.04866C17.0738 0.352567 15.314 0 13.5 0H13.4397C11.6136 0.00904018 9.8448 0.370647 8.18143 1.08181C6.57531 1.76886 5.13493 2.7452 3.90247 3.98973C2.67 5.23426 1.70272 6.68069 1.03375 8.29286C0.34068 9.96228 -0.00886911 11.7372 0.000170956 13.5633C0.00921102 15.6546 0.509428 17.7308 1.44658 19.5871V24.1674C1.44658 24.9328 2.06733 25.5536 2.83272 25.5536H7.41604C9.27226 26.4907 11.3485 26.991 13.4397 27H13.503C15.308 27 17.0588 26.6504 18.7071 25.9664C20.3192 25.2944 21.7686 24.3301 23.0101 23.0977C24.2547 21.8652 25.234 20.4248 25.918 18.8186C26.6292 17.1552 26.9908 15.3864 26.9998 13.5603C27.0089 11.7251 26.6533 9.9442 25.9512 8.26875ZM21.398 21.4674C19.2856 23.5587 16.4832 24.7098 13.5 24.7098H13.4488C11.6317 24.7008 9.82672 24.2488 8.23266 23.399L7.97954 23.2634H3.73673V19.0205L3.60113 18.7674C2.75136 17.1733 2.29936 15.3683 2.29032 13.5512C2.27827 10.5469 3.42636 7.72634 5.53269 5.6019C7.63601 3.47746 10.4475 2.30223 13.4518 2.29018H13.503C15.0097 2.29018 16.4712 2.58248 17.8483 3.16105C19.1922 3.72455 20.3976 4.53516 21.4342 5.57176C22.4677 6.60536 23.2814 7.81373 23.8448 9.1577C24.4294 10.5499 24.7217 12.0265 24.7157 13.5512C24.6976 16.5526 23.5194 19.3641 21.398 21.4674Z" fill="#40BCD7"/>
</svg>
