<svg width="27" height="27" viewBox="0 0 27 27" fill="none" xmlns="http://www.w3.org/2000/svg">
<path d="M18.9875 8.0789L5.70041 12.9664C4.79362 13.3138 4.79886 13.7964 5.53404 14.0115L8.94537 15.0267L16.8382 10.2764C17.2114 10.0598 17.5524 10.1763 17.2721 10.4136L10.8774 15.9188H10.8759L10.8774 15.9195L10.642 19.2737C10.9868 19.2737 11.1389 19.1228 11.3323 18.9448L12.9892 17.4079L16.4358 19.8363C17.0713 20.1701 17.5277 19.9985 17.6858 19.2751L19.9483 9.10402C20.1798 8.2183 19.5938 7.81726 18.9875 8.0789Z" fill="#40BCD7"/>
<path d="M25.85 13.5C25.85 20.3202 20.3202 25.85 13.5 25.85C6.67975 25.85 1.15 20.3202 1.15 13.5C1.15 6.67975 6.67975 1.15 13.5 1.15C20.3202 1.15 25.85 6.67975 25.85 13.5Z" stroke="#40BCD7" stroke-width="2.3"/>
</svg>
