<svg width="26" height="26" viewBox="0 0 26 26" fill="none" xmlns="http://www.w3.org/2000/svg">
<path d="M12.9984 0C9.46481 0 9.02444 0.0170625 7.64156 0.0755625C6.253 0.143813 5.31375 0.359125 4.485 0.680875C3.61763 1.00833 2.8321 1.52101 2.18319 2.18319C1.51917 2.83059 1.0062 3.61655 0.680875 4.485C0.359125 5.31375 0.143813 6.253 0.0755625 7.64156C0.013 9.02525 0 9.46481 0 12.9984C0 16.5319 0.0170625 16.9723 0.0755625 18.3552C0.143813 19.7397 0.359125 20.683 0.680875 21.5117C1.00833 22.3791 1.52101 23.1646 2.18319 23.8136C2.83059 24.4776 3.61655 24.9906 4.485 25.3159C5.31375 25.6336 6.25706 25.8529 7.64156 25.9212C9.02525 25.9838 9.46481 25.9967 12.9984 25.9967C16.5319 25.9967 16.9723 25.9797 18.3552 25.9212C19.7397 25.8529 20.683 25.6328 21.5117 25.3159C22.3791 24.9884 23.1646 24.4757 23.8136 23.8136C24.4784 23.1669 24.9915 22.3807 25.3159 21.5117C25.6336 20.683 25.8529 19.7397 25.9212 18.3552C25.9838 16.9715 25.9967 16.5319 25.9967 12.9984C25.9967 9.46481 25.9797 9.02444 25.9212 7.64156C25.8529 6.25706 25.6327 5.30888 25.3159 4.485C24.9884 3.61763 24.4757 2.8321 23.8136 2.18319C23.1669 1.51831 22.3807 1.00521 21.5117 0.680875C20.683 0.359125 19.7397 0.143813 18.3552 0.0755625C16.9715 0.013 16.5319 0 12.9984 0ZM12.9984 2.34C16.4686 2.34 16.8829 2.35706 18.2544 2.41556C19.5195 2.47488 20.2085 2.68613 20.6659 2.86488C21.2315 3.07362 21.7433 3.40588 22.1642 3.83744C22.595 4.25655 22.926 4.76722 23.1327 5.33162C23.3114 5.78906 23.5227 6.47806 23.582 7.74312C23.6405 9.11462 23.6576 9.52981 23.6576 12.9992C23.6576 16.4686 23.6405 16.8838 23.5771 18.2553C23.5089 19.5203 23.2976 20.2093 23.1197 20.6667C22.8735 21.2769 22.5989 21.7035 22.1455 22.165C21.7232 22.5939 21.2117 22.9245 20.6472 23.1335C20.1955 23.3122 19.4967 23.5235 18.2268 23.5828C16.848 23.6413 16.4417 23.6584 12.9626 23.6584C9.4835 23.6584 9.07806 23.6413 7.69763 23.5779C6.43256 23.5097 5.73463 23.2984 5.27719 23.1205C4.65969 22.8743 4.23637 22.5997 3.783 22.1463C3.32556 21.6889 3.03469 21.2534 2.81044 20.6481C2.62844 20.1963 2.42044 19.4976 2.353 18.2276C2.30669 16.8651 2.28475 16.4426 2.28475 12.9797C2.28475 9.51844 2.30669 9.09513 2.353 7.7155C2.42044 6.44556 2.62844 5.74844 2.81044 5.29506C3.03469 4.67675 3.32638 4.25425 3.783 3.79681C4.23556 3.34425 4.65969 3.05175 5.27719 2.82262C5.73463 2.64469 6.4155 2.43344 7.68544 2.37006C9.06425 2.3205 9.4705 2.30263 12.9447 2.30263L12.9984 2.34ZM12.9984 6.32694C12.122 6.32662 11.2541 6.499 10.4443 6.83424C9.63457 7.16948 8.89881 7.661 8.27909 8.28072C7.65938 8.90043 7.16786 9.63619 6.83262 10.446C6.49738 11.2557 6.32499 12.1236 6.32531 13C6.32499 13.8764 6.49738 14.7443 6.83262 15.554C7.16786 16.3638 7.65938 17.0996 8.27909 17.7193C8.89881 18.339 9.63457 18.8305 10.4443 19.1658C11.2541 19.501 12.122 19.6734 12.9984 19.6731C13.8748 19.6734 14.7427 19.501 15.5524 19.1658C16.3622 18.8305 17.0979 18.339 17.7177 17.7193C18.3374 17.0996 18.8289 16.3638 19.1641 15.554C19.4994 14.7443 19.6718 13.8764 19.6714 13C19.6718 12.1236 19.4994 11.2557 19.1641 10.446C18.8289 9.63619 18.3374 8.90043 17.7177 8.28072C17.0979 7.661 16.3622 7.16948 15.5524 6.83424C14.7427 6.499 13.8748 6.32662 12.9984 6.32694ZM12.9984 17.3331C10.6031 17.3331 8.66531 15.3953 8.66531 13C8.66531 10.6047 10.6031 8.66694 12.9984 8.66694C15.3936 8.66694 17.3314 10.6047 17.3314 13C17.3314 15.3953 15.3936 17.3331 12.9984 17.3331ZM21.5004 6.06044C21.4999 6.47454 21.3351 6.87153 21.0422 7.1642C20.7492 7.45686 20.352 7.62125 19.9379 7.62125C19.7332 7.62125 19.5304 7.58092 19.3413 7.50256C19.1521 7.42421 18.9802 7.30936 18.8354 7.16457C18.6906 7.01979 18.5758 6.84791 18.4974 6.65874C18.4191 6.46957 18.3787 6.26682 18.3787 6.06206C18.3787 5.85731 18.4191 5.65456 18.4974 5.46539C18.5758 5.27622 18.6906 5.10433 18.8354 4.95955C18.9802 4.81477 19.1521 4.69992 19.3413 4.62156C19.5304 4.5432 19.7332 4.50287 19.9379 4.50287C20.7967 4.50287 21.5004 5.20163 21.5004 6.06044Z" fill="#40BCD7"/>
</svg>
