<svg width="100" height="67" viewBox="0 0 100 67" fill="none" xmlns="http://www.w3.org/2000/svg">
<rect width="100" height="67" fill="white"/>
<path d="M9.07782 52.1767H3.05186L1.90498 55.4034H0L5.07347 41.7046H7.07564L12.1297 55.4034H10.2247L9.07782 52.1767ZM8.57241 50.7712L6.06484 43.7238L3.55726 50.7712H8.57241Z" fill="black"/>
<path d="M19.5379 44.3572C20.782 44.3572 21.7863 44.7664 22.5509 45.5846C23.3155 46.3896 23.6978 47.5576 23.6978 49.0885V55.4034H21.9288V49.2469C21.9288 48.1647 21.6567 47.3332 21.1124 46.7526C20.5681 46.1719 19.8295 45.8815 18.8964 45.8815C17.9245 45.8815 17.147 46.2049 16.5638 46.8515C15.9806 47.485 15.6891 48.4154 15.6891 49.6428V55.4034H13.9202V44.5354H15.6891V47.1089C15.9612 46.2247 16.4407 45.545 17.1275 45.0699C17.8273 44.5948 18.6308 44.3572 19.5379 44.3572Z" fill="black"/>
<path d="M27.1496 44.5354L30.6097 53.0873L33.8171 44.5354H35.7804L29.4434 60.5504H27.4412L29.6572 55.2253L25.1669 44.5354H27.1496Z" fill="black"/>
<path d="M47.2977 53.8197V55.4034H45.9759C44.8873 55.4034 44.0709 55.1395 43.5266 54.6116C42.9953 54.0837 42.7297 53.1995 42.7297 51.9589V46.0993H41.1357V44.5354H42.7297V41.8233H44.518V44.5354H47.2783V46.0993H44.518V51.9985C44.518 52.698 44.6411 53.1797 44.8873 53.4436C45.1465 53.6944 45.5871 53.8197 46.2092 53.8197H47.2977Z" fill="black"/>
<path d="M51.2252 46.7328C51.5751 45.9805 52.087 45.3998 52.7609 44.9907C53.4347 44.5684 54.2382 44.3572 55.1713 44.3572V46.317H54.627C53.6291 46.317 52.8127 46.581 52.1777 47.1089C51.5427 47.6236 51.2252 48.4814 51.2252 49.6824V55.4034H49.4563V44.5354H51.2252V46.7328Z" fill="black"/>
<path d="M61.2903 44.3968C62.327 44.3968 63.2018 44.6608 63.9145 45.1887C64.6402 45.7166 65.1456 46.4226 65.4307 47.3068V44.5354H67.1996V55.4034H65.4307V52.632C65.1456 53.5162 64.6402 54.2223 63.9145 54.7502C63.2018 55.278 62.327 55.542 61.2903 55.542C60.3443 55.542 59.502 55.3176 58.7633 54.8689C58.0246 54.4202 57.4415 53.7801 57.0138 52.9487C56.5991 52.1041 56.3918 51.1143 56.3918 49.9793C56.3918 48.8443 56.5991 47.8545 57.0138 47.0099C57.4415 46.1653 58.0246 45.5186 58.7633 45.0699C59.502 44.6212 60.3443 44.3968 61.2903 44.3968ZM61.7957 46.0003C60.7071 46.0003 59.8324 46.3566 59.1715 47.0693C58.5235 47.7688 58.1996 48.7388 58.1996 49.9793C58.1996 51.2199 58.5235 52.1965 59.1715 52.9091C59.8324 53.6086 60.7071 53.9583 61.7957 53.9583C62.4955 53.9583 63.1175 53.7933 63.6618 53.4634C64.2191 53.1335 64.6532 52.6716 64.9642 52.0777C65.2752 51.4706 65.4307 50.7712 65.4307 49.9793C65.4307 49.1875 65.2752 48.488 64.9642 47.8809C64.6532 47.2739 64.2191 46.8119 63.6618 46.4952C63.1175 46.1653 62.4955 46.0003 61.7957 46.0003Z" fill="black"/>
<path d="M74.1553 53.4832L77.4599 44.5354H79.3648L75.1856 55.4034H73.0862L68.9069 44.5354H70.8119L74.1553 53.4832Z" fill="black"/>
<path d="M90.9174 49.3656C90.9174 49.7484 90.8915 50.0783 90.8397 50.3554H82.3062C82.345 51.596 82.6884 52.5264 83.3364 53.1467C83.9973 53.767 84.8008 54.0771 85.7468 54.0771C86.6021 54.0771 87.3148 53.8593 87.885 53.4238C88.4682 52.9751 88.8246 52.3812 88.9541 51.6422H90.8397C90.7101 52.3944 90.4185 53.0675 89.965 53.6614C89.5243 54.2553 88.9477 54.7172 88.2349 55.0471C87.5222 55.377 86.7187 55.542 85.8245 55.542C84.8008 55.542 83.8936 55.3176 83.1031 54.8689C82.3126 54.4202 81.6906 53.7801 81.237 52.9487C80.7964 52.1041 80.5761 51.1143 80.5761 49.9793C80.5761 48.8443 80.7964 47.8545 81.237 47.0099C81.6906 46.1653 82.3126 45.5186 83.1031 45.0699C83.8936 44.6212 84.8008 44.3968 85.8245 44.3968C86.8613 44.3968 87.7619 44.6212 88.5265 45.0699C89.304 45.5186 89.8937 46.1191 90.2954 46.8713C90.7101 47.6236 90.9174 48.455 90.9174 49.3656ZM89.1291 49.4844C89.168 48.6794 89.0384 48.0063 88.7403 47.4652C88.4423 46.9241 88.034 46.5216 87.5157 46.2577C86.9973 45.9937 86.4336 45.8617 85.8245 45.8617C84.8526 45.8617 84.0362 46.1719 83.3753 46.7922C82.7144 47.3992 82.358 48.2966 82.3062 49.4844H89.1291Z" fill="black"/>
<path d="M95 40.7544V55.4034H93.2311V40.7544H95Z" fill="black"/>
<rect width="18.6768" height="2.34343" rx="1.17171" transform="matrix(0.493183 -0.869926 0.862035 0.506848 25.4145 36.4147)" fill="#40BCD7"/>
<rect width="18.6768" height="2.34343" rx="1.17171" transform="matrix(-0.493183 -0.869926 -0.862036 0.506848 44.7506 36.4147)" fill="#40BCD7"/>
<rect width="24.0151" height="2.34343" rx="1.17171" transform="matrix(-0.493183 -0.869926 -0.862035 0.506848 52.6464 34.6886)" fill="#232830"/>
<rect width="37.1384" height="2.34343" rx="1.17171" transform="matrix(-0.493183 -0.869926 -0.862035 0.506848 71.0396 36.6799)" fill="#232830"/>
<rect width="26.777" height="2.34343" rx="1.17171" transform="matrix(-0.493183 -0.869926 -0.862035 0.506848 59.2876 31.28)" fill="#232830"/>
<path fill-rule="evenodd" clip-rule="evenodd" d="M55.5826 34.6633C56.8031 33.9457 57.2213 32.3563 56.5166 31.1133L58.5367 29.9255C59.8856 32.3047 59.0851 35.347 56.7489 36.7206C54.4126 38.0942 51.4253 37.2791 50.0765 34.8999L52.0966 33.7121C52.8013 34.9551 54.362 35.381 55.5826 34.6633Z" fill="#232830"/>
<path fill-rule="evenodd" clip-rule="evenodd" d="M47.7158 5.5647C46.4762 6.29353 46.0515 7.90772 46.7672 9.17009L44.7471 10.3579C43.3873 7.95929 44.1942 4.89225 46.5495 3.50743C48.9047 2.12262 51.9164 2.94443 53.2762 5.343L51.2561 6.53076C50.5404 5.26839 48.9554 4.83586 47.7158 5.5647Z" fill="#232830"/>
</svg>
